<?xml version="1.0" encoding="UTF-8" standalone="no"?>
<svg
   width="1200"
   height="627"
   version="1.1"
   viewBox="0 0 1200 627"
   id="svg18"
   sodipodi:docname="cafetear.svg"
   inkscape:version="1.1.1 (3bf5ae0d25, 2021-09-20)"
   xmlns:inkscape="http://www.inkscape.org/namespaces/inkscape"
   xmlns:sodipodi="http://sodipodi.sourceforge.net/DTD/sodipodi-0.dtd"
   xmlns="http://www.w3.org/2000/svg"
   xmlns:svg="http://www.w3.org/2000/svg">
  <defs
     id="defs22" />
  <sodipodi:namedview
     id="namedview20"
     pagecolor="#ffffff"
     bordercolor="#666666"
     borderopacity="1.0"
     inkscape:pageshadow="2"
     inkscape:pageopacity="0.0"
     inkscape:pagecheckerboard="0"
     showgrid="false"
     inkscape:zoom="0.89544304"
     inkscape:cx="842.04128"
     inkscape:cy="628.18066"
     inkscape:window-width="1920"
     inkscape:window-height="1011"
     inkscape:window-x="0"
     inkscape:window-y="32"
     inkscape:window-maximized="1"
     inkscape:current-layer="svg18" />
  <g
     transform="rotate(10 2351 5448.2)"
     id="g8">
    <path
       d="m-192.51 919.67c-46.248-5.2526-98.528-26.094-116.49-72.675-11.36-57.829-17.785-116.71-26.688-175.02-5.6147-49.009-16.721-97.649-17.241-147.1 1.6822-28.532 36.182-36.705 58.495-44.243 70.163-18.191 143.99-19.858 215.8-12.441 28.962 4.7729 61.15 8.17 84.232 28.018 11.584 12.933 3.4267 40.049 28.051 27.772 9.8943-3.054 19.703-2.7693 29.43 0.76415 16.525 1.46 29.255 11.305 41.269 21.839 13.627 8.8112 18.347 25.442 27.538 38.148 5.8524 13.426 8.8621 28.319 12.752 42.46 0.43114 21.089 4.2833 42.376-1.106 63.13-6.191 40.074-26.049 80.266-61.102 102.46-11.153 9.3042-26.568 10.2-39.732 15.54h-40.981c0.0679 43.762-34.699 78.253-72.95 93.995-37.89 16.694-80.336 20.947-121.29 17.353zm232.18-157.24c42.951-14.276 60.917-62.944 63.302-104.51 0.11708-35.056-7.6006-76.493-39.164-96.889-17.945-1.6478-58.578-5.4542-51.207 23.276-3.0593 60.376-6.2888 120.75-8.5159 181.17 11.852 1.6342 24.338 1.5015 35.585-3.0421zm-154.68-205.21c-8.8519-1.4823-21.445 3.5105-3.4688 0.72098z"
       fill="#be77cc"
       id="path2" />
    <path
       d="m-185.41 922.47c-44.374-4.168-94.037-18.068-119.66-57.516-15.748-26.352-13.545-58.533-19.796-87.732-10.954-80.247-24.223-160.24-32.464-240.82-5.3869-26.552 20.216-42.298 41.948-48.944 70.895-23.595 147.18-24.536 221.04-19.371 32.519 4.3923 68.44 7.3572 95.047 28.428 15.3 9.9071 0.0253 44.206 26.739 29.167 10.242-2.5641 20.458-4.1451 30.524 0.0144 11.076 2.9084 23.261 3.5506 31.185 12.896 10.121 8.5518 22.378 15.238 27.523 28.137 13.126 18.787 19.731 41.135 24.305 63.257 0.30243 21.475 4.1119 43.179-1.6312 64.259-6.2548 39.722-26.756 78.931-61.393 100.82-10.798 8.61-25.524 9.5306-38.092 14.675h-41.983c0.0708 30.012-16.03 57.726-40.146 75.016-40.445 31.004-93.451 39.104-143.14 37.71zm57.771-6.1136c37.767-6.6141 75.386-22.236 101.73-50.904-21.299 19.713-47.857 33.995-76.157 39.8 6.8632-9.2648 37.777-13.505 51.109-25.874 25.491-14.608 44.344-40.985 44.377-71.002-0.22495-5.6232 5.1597-28.319 0.69631-17.508 3.9363-76.192 6.455-152.51 11.488-228.61 2.1761-4.7042 2.8646-21.034 0.3728-14.047 0.14905-15.577-0.0983-37.675-7.5496-44.777 8.3165 21.003-23.399 30.181-38.638 36.444-47.145 14.254-96.364 22.058-145.7 19.423-41.479 0.0443-84.59-2.6017-124.25-11.99-0.76679-0.66207-26.555-6.897-7.019 0.3913 10.45 4.8887 46.437 14.443 17.186 8.9917-19.452-5.664-47.351-8.4406-53.687-31.445-3.0818 21.421 3.6744 43.416 5.4474 64.973 11.808 83.412 22.962 167.05 35.463 250.3 10.694 37.293 46.283 61.198 82.107 71.039 33.37 9.5277 68.892 9.9519 103.02 4.7947zm21.313-11.695c9.0629-5.7996-5.1878 7.189 0 0zm-55.983-340.35c22.83-1.9553 51.213-6.7459 70.839-6.5921-23.084 5.4688-47.146 7.9317-70.839 6.5921zm141.91 294.42c8.6064-12.841-11.462 13.694 0 0zm63.989-60.004c36.809-5.3053 62.939-37.456 77.498-69.558 10.819-21.52 16.111-46.04 16.334-69.96-0.0219-15.98-0.7653-31.85-6.427-46.96-2.7323-12.663-6.8636-24.726-14.696-35.198-5.8333-9.979-11.088-20.463-21.464-26.477-11.613-11.745-26.068-18.662-42.361-20.936-13.504-4.6445-27.439 3.4297-40.959 4.593-11.354 32.706 24.183 10.28 40.514 11.703 27.377 2.5188-14.896 0.69246-23.23 5.3036-12.606 1.5719-28.118 6.4408-5.6657 2.3961 12.956-0.76433 26.054-8.5508 38.845-3.892 25.694 4.0052 42.834 25.732 53.351 47.846 6.9966 13.206 7.2965 28.97 11.468 43.255-13.918 4.4512-9.4878-31.783-18.695-41.317-10.419-24.842-35.35-49.875-64.424-43.387-8.9946 0.90675-51.869 9.8192-21.452 5.4358 24.589-9.8337 52.907-1.7075 63.321 24.261 24.358 46.39 20.749 106.77-8.2156 150.32 4.3625 4.1517-23.466 30.375-37.535 31.961-12.014 6.6358-29.561 0.94728-40.104 4.9372 1.7966 8.8154-8.1472 28.92 3.7563 28.088 13.377-0.53216 27.013 0.48463 40.143-2.4752zm30-4.7265c-3.7978 1.163-4.4038 5.5982 0 0zm26.122-20.409c7.9261-11.957-12.064 14.412 0 0zm5.8781-7.5911c-3.7978 1.163-4.4038 5.5982 0 0zm-70.732-1.8488c40.571-13.462 60.18-57.945 63.44-97.788 2.5183-36.089-5.0928-78.081-35.088-101.54-14.339-6.7494-49.455-5.5632-53.768 9.6249-3.5311 64.422-6.0885 128.9-10.003 193.3 11.915-0.15129 24.09 1.0391 35.419-3.5937zm73.732-2.1512c-3.7978 1.163-4.4038 5.5982 0 0zm10.807-15.782c-2.8301 1.933-1.1878 4.3497 0 0zm-115.2-121.27c-1.7415 1.8372 1.1343 3.6814 0 0zm-229.42-68.954c-5.5905-0.8633 1.7194 1.7144 0 0zm69.812-2.3361c35.866-1.6313 71.414-8.1531 106.45-14.893 12.691-3.3638 48.82-11.524 40.451-32.459-4.6297-11.269-38.391-18.352-33.472-21.27 13.344 3.904 26.934 5.0513 7.5105-1.2525-55.53-14.319-113.99-17.353-170.8-10.159-45.985 2.5774-94.749 6.8536-134.64 32.035-13.303 4.516-8.2212 25.867-1.7582 25.018-6.3767-18.365 25.846 16.256 38.603 12.459 48.229 11.931 98.291 12.599 147.66 10.522z"
       stroke="#000"
       stroke-width="5"
       id="path4" />
    <text
       transform="matrix(.89004 .0046603 .0058831 1.1236 0 0)"
       x="-299.05414"
       y="714.67096"
       fill="#000000"
       font-family="sans-serif"
       font-size="150px"
       stroke-width="5"
       id="text6">te</text>
  </g>
  <g
     transform="matrix(-.98481 .17365 .17365 .98481 72.917 -389.92)"
     id="g16">
    <path
       d="m-192.51 919.67c-46.248-5.2526-98.528-26.094-116.49-72.675-11.36-57.829-17.785-116.71-26.688-175.02-5.6147-49.009-16.721-97.649-17.241-147.1 1.6822-28.532 36.182-36.705 58.495-44.243 70.163-18.191 143.99-19.858 215.8-12.441 28.962 4.7729 61.15 8.17 84.232 28.018 11.584 12.933 3.4267 40.049 28.051 27.772 9.8943-3.054 19.703-2.7693 29.43 0.76415 16.525 1.46 29.255 11.305 41.269 21.839 13.627 8.8112 18.347 25.442 27.538 38.148 5.8524 13.426 8.8621 28.319 12.752 42.46 0.43114 21.089 4.2833 42.376-1.106 63.13-6.191 40.074-26.049 80.266-61.102 102.46-11.153 9.3042-26.568 10.2-39.732 15.54h-40.981c0.0679 43.762-34.699 78.253-72.95 93.995-37.89 16.694-80.336 20.947-121.29 17.353zm232.18-157.24c42.951-14.276 60.917-62.944 63.302-104.51 0.11708-35.056-7.6006-76.493-39.164-96.889-17.945-1.6478-58.578-5.4542-51.207 23.276-3.0593 60.376-6.2888 120.75-8.5159 181.17 11.852 1.6342 24.338 1.5015 35.585-3.0421zm-154.68-205.21c-8.8519-1.4823-21.445 3.5105-3.4688 0.72098z"
       fill="#c17752"
       id="path10" />
    <path
       d="m-185.41 922.47c-44.374-4.168-94.037-18.068-119.66-57.516-15.748-26.352-13.545-58.533-19.796-87.732-10.954-80.247-24.223-160.24-32.464-240.82-5.3869-26.552 20.216-42.298 41.948-48.944 70.895-23.595 147.18-24.536 221.04-19.371 32.519 4.3923 68.44 7.3572 95.047 28.428 15.3 9.9071 0.0253 44.206 26.739 29.167 10.242-2.5641 20.458-4.1451 30.524 0.0144 11.076 2.9084 23.261 3.5506 31.185 12.896 10.121 8.5518 22.378 15.238 27.523 28.137 13.126 18.787 19.731 41.135 24.305 63.257 0.30243 21.475 4.1119 43.179-1.6312 64.259-6.2548 39.722-26.756 78.931-61.393 100.82-10.798 8.61-25.524 9.5306-38.092 14.675h-41.983c0.0708 30.012-16.03 57.726-40.146 75.016-40.445 31.004-93.451 39.104-143.14 37.71zm57.771-6.1136c37.767-6.6141 75.386-22.236 101.73-50.904-21.299 19.713-47.857 33.995-76.157 39.8 6.8632-9.2648 37.777-13.505 51.109-25.874 25.491-14.608 44.344-40.985 44.377-71.002-0.22495-5.6232 5.1597-28.319 0.69631-17.508 3.9363-76.192 6.455-152.51 11.488-228.61 2.1761-4.7042 2.8646-21.034 0.3728-14.047 0.14905-15.577-0.0983-37.675-7.5496-44.777 8.3165 21.003-23.399 30.181-38.638 36.444-47.145 14.254-96.364 22.058-145.7 19.423-41.479 0.0443-84.59-2.6017-124.25-11.99-0.76679-0.66207-26.555-6.897-7.019 0.3913 10.45 4.8887 46.437 14.443 17.186 8.9917-19.452-5.664-47.351-8.4406-53.687-31.445-3.0818 21.421 3.6744 43.416 5.4474 64.973 11.808 83.412 22.962 167.05 35.463 250.3 10.694 37.293 46.283 61.198 82.107 71.039 33.37 9.5277 68.892 9.9519 103.02 4.7947zm21.313-11.695c9.0629-5.7996-5.1878 7.189 0 0zm-55.983-340.35c22.83-1.9553 51.213-6.7459 70.839-6.5921-23.084 5.4688-47.146 7.9317-70.839 6.5921zm141.91 294.42c8.6064-12.841-11.462 13.694 0 0zm63.989-60.004c36.809-5.3053 62.939-37.456 77.498-69.558 10.819-21.52 16.111-46.04 16.334-69.96-0.0219-15.98-0.7653-31.85-6.427-46.96-2.7323-12.663-6.8636-24.726-14.696-35.198-5.8333-9.979-11.088-20.463-21.464-26.477-11.613-11.745-26.068-18.662-42.361-20.936-13.504-4.6445-27.439 3.4297-40.959 4.593-11.354 32.706 24.183 10.28 40.514 11.703 27.377 2.5188-14.896 0.69246-23.23 5.3036-12.606 1.5719-28.118 6.4408-5.6657 2.3961 12.956-0.76433 26.054-8.5508 38.845-3.892 25.694 4.0052 42.834 25.732 53.351 47.846 6.9966 13.206 7.2965 28.97 11.468 43.255-13.918 4.4512-9.4878-31.783-18.695-41.317-10.419-24.842-35.35-49.875-64.424-43.387-8.9946 0.90675-51.869 9.8192-21.452 5.4358 24.589-9.8337 52.907-1.7075 63.321 24.261 24.358 46.39 20.749 106.77-8.2156 150.32 4.3625 4.1517-23.466 30.375-37.535 31.961-12.014 6.6358-29.561 0.94728-40.104 4.9372 1.7966 8.8154-8.1472 28.92 3.7563 28.088 13.377-0.53216 27.013 0.48463 40.143-2.4752zm30-4.7265c-3.7978 1.163-4.4038 5.5982 0 0zm26.122-20.409c7.9261-11.957-12.064 14.412 0 0zm5.8781-7.5911c-3.7978 1.163-4.4038 5.5982 0 0zm-70.732-1.8488c40.571-13.462 60.18-57.945 63.44-97.788 2.5183-36.089-5.0928-78.081-35.088-101.54-14.339-6.7494-49.455-5.5632-53.768 9.6249-3.5311 64.422-6.0885 128.9-10.003 193.3 11.915-0.15129 24.09 1.0391 35.419-3.5937zm73.732-2.1512c-3.7978 1.163-4.4038 5.5982 0 0zm10.807-15.782c-2.8301 1.933-1.1878 4.3497 0 0zm-115.2-121.27c-1.7415 1.8372 1.1343 3.6814 0 0zm-229.42-68.954c-5.5905-0.8633 1.7194 1.7144 0 0zm69.812-2.3361c35.866-1.6313 71.414-8.1531 106.45-14.893 12.691-3.3638 48.82-11.524 40.451-32.459-4.6297-11.269-38.391-18.352-33.472-21.27 13.344 3.904 26.934 5.0513 7.5105-1.2525-55.53-14.319-113.99-17.353-170.8-10.159-45.985 2.5774-94.749 6.8536-134.64 32.035-13.303 4.516-8.2212 25.867-1.7582 25.018-6.3767-18.365 25.846 16.256 38.603 12.459 48.229 11.931 98.291 12.599 147.66 10.522z"
       stroke="#000"
       stroke-width="5"
       id="path12" />
    <text
       transform="matrix(-.7814 .020658 .18181 1.275 0 0)"
       x="186.73868"
       y="591.46356"
       fill="#000000"
       font-family="sans-serif"
       font-size="100px"
       stroke-width="3"
       id="text14">cafe</text>
  </g>
  <g
     id="g1196"
     transform="matrix(5.019211,0,0,5.7388575,805.98736,390.33499)">
    <path
       d="M 0,2 Q 15,-2 30,2 45,6 60,2 V 13 Q 45,17 30,13 15,9 0,13 Z"
       id="path4-3"
       style="fill:#7ccce3;fill-opacity:1" />
    <path
       d="m 0,12 q 15,-4 30,0 15,4 30,0 V 23 Q 45,27 30,23 15,19 0,23 Z"
       fill="#f00"
       id="path6"
       style="fill:#ffffff;fill-opacity:1" />
    <path
       d="m 0,22 q 15,-4 30,0 15,4 30,0 V 32 Q 45,36 30,32 15,28 0,32 Z"
       fill="#fc0"
       id="path8"
       style="fill:#7ccce3;fill-opacity:1" />
    <text
       xml:space="preserve"
       style="font-style:normal;font-weight:normal;font-size:30.975px;line-height:1.25;font-family:sans-serif;fill:#000000;fill-opacity:1;stroke:none;stroke-width:0.774374"
       x="12.282165"
       y="25.907179"
       id="text2800"
       transform="scale(1.0391526,0.96232255)"><tspan
         sodipodi:role="line"
         id="tspan2798"
         x="12.282165"
         y="25.907179"
         style="stroke-width:0.774374">ar</tspan></text>
  </g>
</svg>
